<svg width="35" height="35" viewBox="0 0 35 35" fill="none" xmlns="http://www.w3.org/2000/svg">
<path d="M17.5 3.27689C14.0371 3.27681 10.6872 4.50901 8.04967 6.75298C5.41218 8.99695 3.65927 12.1062 3.10463 15.5244C2.54998 18.9427 3.2298 22.4467 5.02243 25.4095C6.81505 28.3723 9.6035 30.6005 12.8888 31.6954C13.6179 31.8238 13.8906 31.3863 13.8906 31.0027C13.8906 30.6571 13.8731 29.5079 13.8731 28.2873C10.2083 28.9611 9.26043 27.3933 8.96876 26.5738C8.64522 25.7757 8.13217 25.0684 7.47397 24.5131C6.96355 24.2404 6.23439 23.5652 7.45501 23.5477C7.9215 23.5982 8.36895 23.7604 8.7594 24.0206C9.14985 24.2809 9.47179 24.6314 9.69793 25.0425C9.89733 25.4008 10.1655 25.7162 10.487 25.9707C10.8085 26.2251 11.1771 26.4136 11.5716 26.5254C11.9661 26.6372 12.3788 26.67 12.786 26.622C13.1932 26.574 13.5869 26.4461 13.9446 26.2456C14.0078 25.5039 14.3384 24.8104 14.875 24.2944C11.6302 23.9298 8.2396 22.6727 8.2396 17.0946C8.21894 15.645 8.75377 14.2424 9.73439 13.1746C9.28859 11.9149 9.34075 10.5325 9.88022 9.31001C9.88022 9.31001 11.1008 8.92793 13.8906 10.8048C16.2769 10.1485 18.7961 10.1485 21.1823 10.8048C23.9706 8.90897 25.1927 9.31001 25.1927 9.31001C25.7323 10.5325 25.7845 11.9149 25.3386 13.1746C26.3221 14.2406 26.8574 15.6444 26.8333 17.0946C26.8333 22.6902 23.4238 23.9298 20.179 24.2944C20.527 24.6471 20.7951 25.0706 20.9649 25.5362C21.1348 26.0017 21.2024 26.4983 21.1633 26.9923C21.1633 28.9436 21.1458 30.5113 21.1458 31.0027C21.1458 31.3863 21.4186 31.8413 22.1477 31.6954C25.4269 30.5914 28.2071 28.3579 29.9918 25.3936C31.7766 22.4294 32.4499 18.9273 31.8914 15.5126C31.3329 12.0979 29.5791 8.99272 26.943 6.75148C24.3069 4.51024 20.9601 3.27877 17.5 3.27689Z" fill="black"/>
</svg>
