<svg width="51" height="51" viewBox="0 0 51 51" fill="none" xmlns="http://www.w3.org/2000/svg">
<path fill-rule="evenodd" clip-rule="evenodd" d="M7.96631 13C7.96631 12.337 8.2297 11.7011 8.69854 11.2322C9.16738 10.7634 9.80327 10.5 10.4663 10.5H40.4663C41.1293 10.5 41.7652 10.7634 42.2341 11.2322C42.7029 11.7011 42.9663 12.337 42.9663 13C42.9663 13.663 42.7029 14.2989 42.2341 14.7678C41.7652 15.2366 41.1293 15.5 40.4663 15.5H10.4663C9.80327 15.5 9.16738 15.2366 8.69854 14.7678C8.2297 14.2989 7.96631 13.663 7.96631 13ZM7.96631 25.5C7.96631 24.837 8.2297 24.2011 8.69854 23.7322C9.16738 23.2634 9.80327 23 10.4663 23H40.4663C41.1293 23 41.7652 23.2634 42.2341 23.7322C42.7029 24.2011 42.9663 24.837 42.9663 25.5C42.9663 26.163 42.7029 26.7989 42.2341 27.2678C41.7652 27.7366 41.1293 28 40.4663 28H10.4663C9.80327 28 9.16738 27.7366 8.69854 27.2678C8.2297 26.7989 7.96631 26.163 7.96631 25.5ZM7.96631 38C7.96631 37.337 8.2297 36.7011 8.69854 36.2322C9.16738 35.7634 9.80327 35.5 10.4663 35.5H40.4663C41.1293 35.5 41.7652 35.7634 42.2341 36.2322C42.7029 36.7011 42.9663 37.337 42.9663 38C42.9663 38.663 42.7029 39.2989 42.2341 39.7678C41.7652 40.2366 41.1293 40.5 40.4663 40.5H10.4663C9.80327 40.5 9.16738 40.2366 8.69854 39.7678C8.2297 39.2989 7.96631 38.663 7.96631 38Z" fill="black"/>
</svg>
