<svg width="24" height="24" viewBox="0 0 24 24" fill="none" xmlns="http://www.w3.org/2000/svg">
<path d="M11.9798 22.2409L11.9798 22.2408L11.9727 22.2405C6.62083 22.0016 2.15084 17.6859 1.77918 12.4446L1.77914 12.4441C1.45478 7.94113 4.05884 3.72952 8.26335 1.96128C8.81596 1.73155 9.1915 1.72361 9.43113 1.77153C9.67055 1.81942 9.81821 1.93182 9.90074 2.01729L9.90068 2.01734L9.90688 2.02355C9.99165 2.10831 10.0999 2.25497 10.1447 2.48441C10.1892 2.71284 10.1797 3.06927 9.95227 3.58978L9.95176 3.59095C9.46406 4.71479 9.21999 5.91371 9.23045 7.14328C9.25224 11.8462 13.1491 15.8183 17.8989 16.0095C18.5891 16.0413 19.2657 15.988 19.9178 15.8723L19.9199 15.8719C20.5029 15.7659 20.8656 15.8382 21.0849 15.935C21.304 16.0316 21.4224 16.1713 21.485 16.2727C21.5498 16.3776 21.6237 16.5482 21.6146 16.7884C21.6054 17.0285 21.5114 17.3862 21.1586 17.8624L21.1568 17.8649C19.1324 20.6342 15.9133 22.25 12.4604 22.25C12.288 22.25 12.1327 22.2498 11.9798 22.2409ZM2.27161 12.4043L2.27171 12.4056C2.63018 17.4242 6.89995 21.5181 11.9875 21.7395C15.4447 21.9072 18.7248 20.3306 20.7437 17.5755L20.7438 17.5756L20.7473 17.5706C20.9197 17.3293 21.0116 17.141 21.0586 17.0156L21.2842 16.414L20.6457 16.3431C20.5144 16.3285 20.3036 16.3181 19.9979 16.3786C19.3059 16.5015 18.5837 16.5489 17.8704 16.5204L17.8703 16.5204C12.8533 16.3208 8.74965 12.1061 8.72044 7.15853C8.72063 5.84657 8.97693 4.58682 9.49694 3.40398C9.62437 3.12269 9.65317 2.91927 9.66658 2.81201L9.73683 2.24999H9.17044C9.00062 2.24999 8.77435 2.28897 8.46629 2.41923C4.46137 4.10135 1.9768 8.11898 2.27161 12.4043Z" stroke="#090D1F"/>
</svg>
